<?xml version="1.0" standalone="no"?>
<!DOCTYPE svg PUBLIC "-//W3C//DTD SVG 20010904//EN"
 "http://www.w3.org/TR/2001/REC-SVG-20010904/DTD/svg10.dtd">
<svg version="1.0" xmlns="http://www.w3.org/2000/svg"
 width="300.000000pt" height="300.000000pt" viewBox="0 0 300.000000 300.000000"
 preserveAspectRatio="xMidYMid meet">
<metadata>
Created by potrace 1.14, written by Peter Selinger 2001-2017
</metadata>
<g transform="translate(0.000000,300.000000) scale(0.100000,-0.100000)"
fill="#000000" stroke="none">
<path d="M964 2968 l-35 -33 1 -1166 c0 -642 2 -1174 6 -1182 3 -9 18 -20 34
-25 37 -13 897 -15 974 -2 32 5 66 16 75 24 9 9 48 27 86 42 39 14 75 29 80
34 6 4 32 11 60 15 54 8 89 30 117 75 10 17 24 30 31 30 8 0 30 15 50 33 20
17 48 40 62 50 14 11 33 34 42 52 9 18 26 38 39 44 13 5 31 25 40 43 9 18 27
46 40 61 13 16 27 41 31 55 11 44 52 134 81 176 24 35 26 47 29 165 4 159 9
186 35 211 18 16 21 33 23 110 3 89 2 93 -25 116 -27 25 -27 26 -32 179 -5
145 -7 157 -30 187 -26 33 -78 140 -78 159 0 5 -18 29 -40 53 -22 24 -40 48
-40 55 0 6 -9 16 -20 23 -11 7 -32 30 -46 50 -15 21 -41 46 -60 57 -18 11 -40
35 -47 54 -10 24 -35 47 -83 79 -113 74 -137 86 -189 99 -27 6 -65 23 -84 37
-29 22 -48 26 -130 31 -61 4 -108 13 -130 24 -31 15 -74 17 -433 17 l-398 0
-36 -32z m771 -388 c28 -5 82 -14 120 -20 84 -14 138 -36 185 -78 19 -18 39
-32 43 -32 26 0 84 -68 144 -170 54 -89 58 -100 70 -195 16 -129 17 -416 1
-575 -12 -124 -12 -126 -65 -219 -29 -51 -53 -96 -53 -100 0 -6 -177 -172
-197 -184 -26 -16 -204 -46 -304 -52 -124 -8 -182 4 -213 43 -40 50 -43 78
-33 282 7 143 7 195 -2 198 -13 4 -16 162 -2 162 4 0 8 109 8 243 0 143 -4
224 -8 197 -4 -25 -6 50 -4 166 4 283 11 301 140 341 33 10 92 8 170 -7z m624
-772 c1 -101 -2 -158 -8 -163 -7 -4 -12 7 -13 27 -5 116 -5 240 0 283 9 86 19
21 21 -147z"/>
<path d="M158 2649 c-10 -5 -18 -17 -18 -25 0 -22 -27 -48 -33 -31 -3 6 -5
-539 -5 -1213 0 -674 2 -1219 5 -1212 8 20 33 -6 33 -34 0 -32 24 -52 73 -59
23 -3 445 -5 937 -3 834 3 898 4 923 21 17 11 24 23 20 32 -3 9 3 25 13 36 17
19 19 19 25 2 4 -10 8 26 8 80 1 88 -1 98 -16 95 -13 -2 -19 5 -21 22 -6 56 4
55 -654 60 -596 5 -607 5 -635 26 -15 11 -34 32 -40 45 -10 19 -13 258 -13
1061 0 738 -3 1044 -11 1061 -6 14 -22 30 -36 36 -31 14 -531 15 -555 0z"/>
</g>
</svg>
